<?xml version="1.0" encoding="utf-8"?>
<!-- Generator: Adobe Illustrator 16.0.0, SVG Export Plug-In . SVG Version: 6.00 Build 0)  -->
<!DOCTYPE svg PUBLIC "-//W3C//DTD SVG 1.1//EN" "http://www.w3.org/Graphics/SVG/1.1/DTD/svg11.dtd">
<svg version="1.1" id="Слой_1" xmlns="http://www.w3.org/2000/svg" xmlns:xlink="http://www.w3.org/1999/xlink" x="0px" y="0px"
	 width="512px" height="512px" viewBox="0 0 512 512" enable-background="new 0 0 512 512" xml:space="preserve">
<circle fill="#FFFFFF" cx="256" cy="255.75" r="244.25"/>
<linearGradient id="SVGID_1_" gradientUnits="userSpaceOnUse" x1="189.1521" y1="283.2305" x2="318.3703" y2="129.2342">
	<stop  offset="0" style="stop-color:#165672"/>
	<stop  offset="1" style="stop-color:#35A3C9"/>
</linearGradient>
<path fill="url(#SVGID_1_)" d="M285.4,207.399c0,16.68-13.569,30.248-30.248,30.248c-16.679,0-30.247-13.568-30.247-30.248
	c0-16.678,13.568-30.247,30.247-30.247C271.83,177.152,285.4,190.721,285.4,207.399 M255.152,106.842
	c-55.447,0-100.557,45.109-100.557,100.557c0,55.448,45.11,100.558,100.557,100.558c20.315,0,39.901-6.049,56.643-17.489l0.291-0.2
	l-13.548-15.749l-0.23,0.148c-12.89,8.292-27.812,12.675-43.156,12.675c-44.08,0-79.94-35.863-79.94-79.943
	c0-44.08,35.861-79.94,79.94-79.94s79.943,35.86,79.943,79.94c0,5.712-0.636,11.496-1.884,17.185
	c-2.529,10.374-9.791,13.552-15.247,13.132c-5.485-0.442-11.904-4.354-11.946-13.92v-16.396c0-28.046-22.818-50.863-50.865-50.863
	c-28.046,0-50.864,22.816-50.864,50.863c0,28.047,22.818,50.865,50.864,50.865c13.624,0,26.404-5.328,36.038-15.015
	c5.6,8.717,14.733,14.183,25.122,15.017c0.892,0.071,1.801,0.108,2.704,0.108c7.314,0,14.563-2.444,20.411-6.883
	c6.028-4.576,10.527-11.196,13.012-19.145c0.402-1.284,1.128-4.226,1.132-4.245l0.021-0.106c1.464-6.383,2.118-12.741,2.118-20.596
	C355.71,151.952,310.6,106.842,255.152,106.842"/>
<linearGradient id="SVGID_2_" gradientUnits="userSpaceOnUse" x1="58.6721" y1="490.917" x2="464.0822" y2="7.7681">
	<stop  offset="0" style="stop-color:#001D32"/>
	<stop  offset="1" style="stop-color:#40BFE8"/>
</linearGradient>
<path fill="url(#SVGID_2_)" d="M256,11.5c-134.896,0-244.25,109.354-244.25,244.25C11.75,390.646,121.104,500,256,500
	c134.896,0,244.25-109.354,244.25-244.25C500.25,120.854,390.896,11.5,256,11.5z M256,41.498
	c118.327,0,214.252,95.924,214.252,214.252c0,31.311-6.72,61.051-18.791,87.862h-14.78c-4.313,0-8.191,2.701-9.762,6.711
	l-6.578,16.73l-20.522-119.772c-0.871-5.006-5.229-8.546-10.326-8.546h-0.044c-5.054,0-9.41,3.491-10.326,8.458l-19.216,106.723
	l-8.453-40.755c-0.87-4.275-4.27-7.544-8.538-8.236c-4.314-0.735-8.541,1.308-10.763,5.011l-19.913,33.741h-44.748
	c-0.149,0-0.297,0.005-0.444,0.011c-0.408-0.048-0.823-0.076-1.245-0.076H172.69c-4.313,0-8.191,2.701-9.76,6.711l-6.58,16.73
	l-20.521-119.772c-0.872-5.006-5.229-8.546-10.327-8.546h-0.043c-5.054,0-9.412,3.491-10.327,8.458L95.916,353.917l-8.453-40.755
	c-0.871-4.275-4.271-7.544-8.54-8.236c-4.313-0.735-8.541,1.308-10.762,5.011L55.5,331.392
	c-8.879-23.522-13.751-49.012-13.751-75.642C41.748,137.422,137.672,41.498,256,41.498z M79.526,377.253
	c-4.994-7.24-9.555-14.8-13.644-22.647l6.549-11.298L79.526,377.253z M106.996,409.685l18.245-100.14l16.732,97.856
	c0.783,4.662,4.574,8.19,9.236,8.671c4.749,0.436,9.15-2.157,10.85-6.579l17.777-44.857h85.967c0.285,0,0.566-0.015,0.845-0.037
	c0.28,0.022,0.56,0.037,0.845,0.037h50.718c3.704,0,7.146-2.287,9.021-5.468l9.192-15.86l13.943,66.709
	c1.002,4.878,5.272,7.058,10.282,7.058h0.131c5.011,0,9.281-2.396,10.195-7.319l18.257-100.21l16.732,97.856
	c0.063,0.375,0.152,0.74,0.253,1.1c-38.667,38.03-91.697,61.501-150.216,61.501C198.09,470.002,145.556,447.018,106.996,409.685z"/>
</svg>
